<svg width="16" height="16" viewBox="0 0 16 16" fill="none" xmlns="http://www.w3.org/2000/svg">
<g clip-path="url(#clip0_777_20)">
<path d="M13.5447 2.91332C12.5074 2.43716 11.4126 2.09761 10.2879 1.90318C10.2777 1.90128 10.2672 1.90264 10.2578 1.90708C10.2484 1.91152 10.2406 1.91881 10.2356 1.92792C10.0949 2.17812 9.93914 2.50445 9.83007 2.76092C8.60027 2.57678 7.37674 2.57678 6.1722 2.76092C6.06314 2.49872 5.90167 2.17812 5.7604 1.92792C5.75517 1.91902 5.74738 1.91191 5.73804 1.90751C5.72871 1.90311 5.71826 1.90162 5.70807 1.90325C4.58326 2.09723 3.48846 2.43674 2.45127 2.91325C2.4424 2.91704 2.43492 2.92349 2.42987 2.93172C0.355603 6.03065 -0.212664 9.05338 0.066136 12.0386C0.0669243 12.046 0.0691714 12.053 0.0727443 12.0595C0.0763171 12.0659 0.081143 12.0715 0.086936 12.076C1.45547 13.0811 2.78114 13.6912 4.0822 14.0956C4.09232 14.0987 4.10312 14.0985 4.11315 14.0952C4.12318 14.0919 4.13197 14.0857 4.13834 14.0772C4.44607 13.657 4.7204 13.2138 4.95567 12.7478C4.9589 12.7414 4.96075 12.7344 4.96109 12.7273C4.96142 12.7201 4.96024 12.713 4.95762 12.7063C4.955 12.6997 4.951 12.6936 4.94589 12.6886C4.94077 12.6836 4.93465 12.6798 4.92794 12.6773C4.49274 12.5122 4.0784 12.311 3.6798 12.0824C3.67253 12.0782 3.66643 12.0722 3.66202 12.065C3.65762 12.0578 3.65506 12.0496 3.65456 12.0412C3.65405 12.0328 3.65563 12.0244 3.65915 12.0168C3.66267 12.0091 3.66802 12.0024 3.67474 11.9973C3.7586 11.9344 3.84254 11.8691 3.9226 11.803C3.92972 11.7972 3.93833 11.7934 3.94747 11.7922C3.95661 11.7909 3.96592 11.7923 3.97434 11.796C6.59287 12.9916 9.42767 12.9916 12.0153 11.796C12.0237 11.792 12.0331 11.7905 12.0424 11.7916C12.0516 11.7927 12.0604 11.7965 12.0676 11.8024C12.1477 11.8684 12.2316 11.9344 12.3161 11.9973C12.3229 12.0024 12.3282 12.009 12.3318 12.0166C12.3354 12.0242 12.337 12.0326 12.3366 12.041C12.3361 12.0494 12.3337 12.0576 12.3293 12.0648C12.325 12.072 12.3189 12.0781 12.3117 12.0824C11.913 12.3153 11.4953 12.5141 11.0631 12.6766C11.0564 12.6792 11.0503 12.6832 11.0452 12.6883C11.0401 12.6933 11.0362 12.6994 11.0336 12.7061C11.031 12.7129 11.0299 12.72 11.0303 12.7272C11.0307 12.7344 11.0326 12.7414 11.0359 12.7478C11.2762 13.2131 11.5505 13.6563 11.8526 14.0766C11.8588 14.0853 11.8675 14.0918 11.8776 14.0952C11.8877 14.0986 11.8986 14.0988 11.9087 14.0956C13.2161 13.6912 14.5417 13.081 15.9103 12.076C15.9162 12.0717 15.9211 12.0662 15.9247 12.0599C15.9283 12.0536 15.9305 12.0465 15.9311 12.0392C16.2647 8.58792 15.3723 5.58998 13.5655 2.93232C13.561 2.92368 13.5537 2.91698 13.5447 2.91332ZM5.34667 10.2209C4.55834 10.2209 3.90874 9.49712 3.90874 8.60825C3.90874 7.71945 4.54574 6.99565 5.34674 6.99565C6.15394 6.99565 6.7972 7.72578 6.7846 8.60832C6.7846 9.49712 6.1476 10.2209 5.34667 10.2209ZM10.6632 10.2209C9.87487 10.2209 9.22527 9.49712 9.22527 8.60825C9.22527 7.71945 9.8622 6.99565 10.6632 6.99565C11.4704 6.99565 12.1137 7.72578 12.1011 8.60832C12.1011 9.49712 11.4704 10.2209 10.6632 10.2209Z" fill="#EDEDED"/>
</g>
<defs>
<clipPath id="clip0_777_20">
<rect width="16" height="16" fill="white"/>
</clipPath>
</defs>
</svg>
