<svg width="313" height="378" viewBox="0 0 313 378" fill="none" xmlns="http://www.w3.org/2000/svg">
<rect x="96.585" width="56.4822" height="56.9743" rx="28.2411" fill="#B28A8A"/>
<rect x="253.04" y="311.649" width="28.2411" height="28.4872" rx="14.1206" fill="#A38AB2"/>
<rect width="28.2647" height="28.4638" rx="10" transform="matrix(0.950263 -0.311449 0.3066 0.951838 69.4727 135.286)" fill="#B1B28A"/>
<g clip-path="url(#clip0_784_381)">
<path d="M281.724 172.658L277.173 194.776C276.899 196.106 277.98 197.227 279.145 196.816L299.777 189.519C300.786 189.163 301.086 187.708 300.304 186.958L284.329 171.623C283.427 170.759 281.998 171.328 281.724 172.658Z" stroke="#495545" stroke-width="5" stroke-miterlimit="10"/>
</g>
<path d="M32.1215 238.465C31.2702 238.58 30.4623 239.032 29.8776 239.716C29.674 239.956 29.3999 240.42 29.2782 240.735C29.1405 241.094 29.02 241.794 29.0314 242.183C29.0447 242.587 29.1729 243.157 29.3322 243.528C29.6056 244.162 30.2368 244.848 30.8232 245.149C31.2482 245.369 31.4523 245.428 32.3306 245.574C32.8088 245.654 33.367 245.766 33.5752 245.821C34.7048 246.117 35.9385 246.759 36.9064 247.551C39.5914 249.75 40.8436 253.238 40.2096 256.757C39.9703 258.082 39.5163 259.224 38.7729 260.38C37.8785 261.763 36.5023 263.006 35.0159 263.77C33.4093 264.596 31.6185 264.924 29.7844 264.734C28.4398 264.591 27.3734 264.254 26.2517 263.62C24.4513 262.605 23.0326 260.988 22.2144 259.009C21.6422 257.62 21.4257 256.179 21.5445 254.524C21.6068 253.642 21.6079 253.512 21.5465 253.114C21.4484 252.506 21.2106 251.97 20.8148 251.476C20.5293 251.125 20.3452 250.96 19.9858 250.739C19.4982 250.434 19.2033 250.343 18.5238 250.271C18.0276 250.218 17.8821 250.218 17.6332 250.258C17.3022 250.317 16.7974 250.487 16.5281 250.637C15.7484 251.066 15.1296 251.791 14.8422 252.608C14.7202 252.957 14.544 254.424 14.5291 255.183C14.485 257.854 15.1028 260.651 16.2518 262.967C16.7524 263.983 17.2539 264.778 17.9948 265.734C19.6111 267.827 21.6328 269.426 24.0768 270.539C24.9816 270.949 26.1132 271.319 27.2513 271.574C28.0173 271.744 29.8436 271.938 30.6236 271.931C33.1933 271.909 35.8211 271.281 37.9965 270.175C41.8208 268.226 44.774 264.89 46.2746 260.825C46.7665 259.489 47.0122 258.444 47.2012 256.871C47.3509 255.625 47.3733 255.076 47.3291 254.019C47.235 251.893 46.647 249.483 45.7734 247.633C43.6017 243.041 39.5291 239.784 34.6494 238.73C33.9608 238.582 32.4359 238.424 32.1215 238.465Z" fill="#2A2F29"/>
<rect width="6.05779" height="6.23676" rx="3.02889" transform="matrix(0.984378 0.176087 -0.171242 0.985232 234.555 76.9153)" fill="#334043"/>
<rect width="6.05779" height="6.23676" rx="3.02889" transform="matrix(0.984378 0.176087 -0.171242 0.985232 241.999 78.2395)" fill="#334043"/>
<rect width="6.05779" height="6.23676" rx="3.02889" transform="matrix(0.984378 0.176087 -0.171242 0.985232 241.999 78.2395)" fill="#334043"/>
<rect width="6.05779" height="6.23676" rx="3.02889" transform="matrix(0.984378 0.176087 -0.171242 0.985232 233.21 84.6055)" fill="#334043"/>
<path d="M126.762 350.078C126.297 350.073 125.832 350.256 125.473 350.583C125.348 350.697 125.171 350.928 125.085 351.091C124.987 351.275 124.877 351.648 124.858 351.861C124.839 352.082 124.871 352.403 124.933 352.618C125.039 352.985 125.335 353.41 125.631 353.62C125.846 353.774 125.952 353.822 126.415 353.971C126.668 354.053 126.961 354.158 127.07 354.204C127.659 354.455 128.282 354.902 128.752 355.411C130.055 356.823 130.504 358.824 129.935 360.693C129.721 361.396 129.402 361.983 128.927 362.555C128.356 363.239 127.535 363.807 126.685 364.106C125.767 364.43 124.781 364.467 123.806 364.218C123.091 364.034 122.539 363.766 121.976 363.332C121.072 362.635 120.413 361.641 120.1 360.498C119.882 359.695 119.858 358.892 120.029 357.999C120.12 357.523 120.129 357.452 120.121 357.23C120.108 356.891 120.014 356.579 119.833 356.279C119.702 356.065 119.614 355.96 119.434 355.811C119.192 355.606 119.039 355.533 118.677 355.44C118.414 355.372 118.335 355.36 118.199 355.363C118.017 355.369 117.734 355.422 117.579 355.482C117.132 355.654 116.751 356.001 116.544 356.424C116.456 356.604 116.266 357.39 116.209 357.803C116.012 359.256 116.164 360.83 116.633 362.184C116.837 362.778 117.056 363.251 117.393 363.831C118.128 365.1 119.113 366.132 120.357 366.933C120.818 367.227 121.404 367.519 122 367.748C122.401 367.902 123.372 368.152 123.793 368.21C125.178 368.401 126.633 368.266 127.876 367.835C130.062 367.075 131.867 365.489 132.938 363.391C133.289 362.701 133.489 362.151 133.693 361.308C133.854 360.641 133.901 360.343 133.946 359.763C134.033 358.596 133.872 357.235 133.521 356.157C132.648 353.481 130.666 351.383 128.106 350.422C127.745 350.287 126.934 350.08 126.762 350.078Z" fill="#8A95B2"/>
<defs>
<clipPath id="clip0_784_381">
<rect width="38.7042" height="39.8679" fill="white" transform="matrix(0.976734 0.214454 -0.201551 0.979478 275.196 162.377)"/>
</clipPath>
</defs>
</svg>
