<svg width="555" height="664" viewBox="0 0 555 664" fill="none" xmlns="http://www.w3.org/2000/svg">
<rect x="171" width="100" height="100" rx="50" fill="#B28A8A"/>
<rect x="448" y="547" width="50" height="50" rx="25" fill="#A38AB2"/>
<rect x="123" y="237.451" width="50" height="50" rx="10" transform="rotate(-18 123 237.451)" fill="#B1B28A"/>
<g clip-path="url(#clip0_783_380)">
<path d="M498.784 303.046L490.726 341.867C490.241 344.202 492.156 346.168 494.218 345.448L530.747 332.64C532.533 332.014 533.063 329.46 531.68 328.145L503.396 301.229C501.798 299.712 499.268 300.711 498.784 303.046Z" stroke="#495545" stroke-width="10" stroke-miterlimit="10"/>
</g>
<path d="M56.8706 418.549C55.3635 418.751 53.933 419.544 52.8979 420.745C52.5375 421.165 52.0521 421.979 51.8367 422.532C51.5928 423.162 51.3795 424.39 51.3998 425.074C51.4233 425.783 51.6503 426.783 51.9323 427.435C52.4164 428.547 53.5338 429.751 54.5721 430.28C55.3246 430.667 55.6859 430.77 57.2408 431.025C58.0875 431.167 59.0758 431.362 59.4443 431.46C61.4444 431.978 63.6285 433.105 65.3421 434.496C70.0959 438.356 72.3129 444.477 71.1904 450.653C70.7666 452.979 69.9628 454.984 68.6468 457.014C67.0633 459.441 64.6266 461.621 61.9952 462.962C59.1507 464.412 55.98 464.989 52.733 464.654C50.3524 464.404 48.4644 463.813 46.4784 462.7C43.2907 460.918 40.779 458.08 39.3305 454.607C38.3173 452.169 37.9341 449.64 38.1444 446.734C38.2546 445.187 38.2566 444.958 38.1479 444.259C37.9742 443.193 37.5532 442.251 36.8524 441.385C36.347 440.769 36.0211 440.479 35.3848 440.091C34.5215 439.555 33.9993 439.396 32.7963 439.269C31.9179 439.177 31.6601 439.176 31.2196 439.247C30.6335 439.35 29.7399 439.649 29.263 439.913C27.8826 440.665 26.7871 441.938 26.2782 443.372C26.0621 443.984 25.7502 446.558 25.7239 447.891C25.6457 452.579 26.7396 457.488 28.7739 461.553C29.6601 463.336 30.5481 464.733 31.8597 466.41C34.7214 470.083 38.3007 472.889 42.6278 474.844C44.2296 475.563 46.2331 476.212 48.2481 476.66C49.6042 476.959 52.8377 477.299 54.2187 477.287C58.7681 477.248 63.4206 476.145 67.2722 474.205C74.0429 470.784 79.2715 464.929 81.9283 457.794C82.7991 455.449 83.2341 453.615 83.5688 450.854C83.8338 448.668 83.8734 447.703 83.7953 445.848C83.6286 442.116 82.5876 437.887 81.0409 434.64C77.196 426.58 69.9855 420.864 61.3462 419.013C60.127 418.754 57.4273 418.476 56.8706 418.549Z" fill="#2A2F29"/>
<rect x="415.284" y="135" width="10.7071" height="10.9645" rx="5.35357" transform="rotate(10 415.284 135)" fill="#334043"/>
<rect x="428.465" y="137.324" width="10.7071" height="10.9645" rx="5.35357" transform="rotate(10 428.465 137.324)" fill="#334043"/>
<rect x="428.465" y="137.324" width="10.7071" height="10.9645" rx="5.35357" transform="rotate(10 428.465 137.324)" fill="#334043"/>
<rect x="412.904" y="148.498" width="10.7071" height="10.9645" rx="5.35357" transform="rotate(10 412.904 148.498)" fill="#334043"/>
<path d="M224.429 614.449C223.604 614.441 222.782 614.761 222.147 615.335C221.925 615.536 221.611 615.941 221.459 616.226C221.286 616.55 221.091 617.204 221.058 617.578C221.024 617.967 221.081 618.53 221.191 618.907C221.379 619.552 221.902 620.296 222.427 620.666C222.806 620.936 222.994 621.021 223.815 621.282C224.262 621.425 224.781 621.609 224.973 621.691C226.016 622.131 227.119 622.917 227.951 623.81C230.259 626.287 231.054 629.799 230.047 633.079C229.667 634.315 229.103 635.345 228.262 636.348C227.251 637.548 225.797 638.546 224.293 639.071C222.667 639.638 220.922 639.704 219.195 639.267C217.929 638.944 216.951 638.474 215.955 637.711C214.354 636.489 213.187 634.745 212.633 632.737C212.247 631.328 212.205 629.919 212.508 628.351C212.668 627.516 212.684 627.391 212.671 627.001C212.647 626.406 212.482 625.86 212.161 625.332C211.929 624.957 211.772 624.773 211.455 624.512C211.025 624.152 210.754 624.024 210.115 623.86C209.648 623.741 209.509 623.721 209.267 623.725C208.945 623.735 208.444 623.828 208.17 623.934C207.378 624.236 206.705 624.845 206.338 625.587C206.181 625.904 205.845 627.283 205.744 628.008C205.397 630.558 205.666 633.321 206.496 635.697C206.857 636.739 207.244 637.57 207.841 638.588C209.142 640.816 210.887 642.627 213.089 644.032C213.905 644.549 214.941 645.06 215.997 645.463C216.708 645.732 218.427 646.171 219.171 646.273C221.624 646.608 224.201 646.372 226.401 645.616C230.27 644.281 233.467 641.498 235.363 637.815C235.985 636.605 236.339 635.639 236.699 634.159C236.984 632.988 237.068 632.465 237.147 631.447C237.301 629.399 237.016 627.011 236.395 625.119C234.85 620.422 231.34 616.74 226.809 615.053C226.169 614.816 224.734 614.453 224.429 614.449Z" fill="#8A95B2"/>
<defs>
<clipPath id="clip0_783_380">
<rect width="68.4974" height="70" fill="white" transform="matrix(0.977121 0.212686 -0.203235 0.97913 487.227 285)"/>
</clipPath>
</defs>
</svg>
