<svg width="16" height="16" viewBox="0 0 16 16" fill="none" xmlns="http://www.w3.org/2000/svg">
<path d="M15.6653 4.12395C15.5749 3.78346 15.3967 3.47271 15.1484 3.22279C14.9001 2.97287 14.5905 2.79258 14.2507 2.69995C13.0033 2.36328 8 2.36328 8 2.36328C8 2.36328 2.99667 2.36328 1.74867 2.69995C1.40894 2.79274 1.09953 2.9731 0.851385 3.223C0.603241 3.4729 0.425061 3.78357 0.334667 4.12395C0 5.37995 0 7.99995 0 7.99995C0 7.99995 0 10.6199 0.334667 11.8759C0.425057 12.2164 0.603317 12.5272 0.851594 12.7771C1.09987 13.027 1.40945 13.2073 1.74933 13.2999C2.99667 13.6366 8 13.6366 8 13.6366C8 13.6366 13.0033 13.6366 14.2513 13.2999C14.5912 13.2074 14.9009 13.0271 15.1491 12.7772C15.3974 12.5273 15.5757 12.2165 15.666 11.8759C16 10.6199 16 7.99995 16 7.99995C16 7.99995 16 5.37995 15.6653 4.12395ZM6.36333 10.3786V5.62128L10.5453 7.99995L6.36333 10.3786Z" fill="#EDEDED"/>
</svg>
