<svg width="512" height="512" viewBox="0 0 512 512" fill="none" xmlns="http://www.w3.org/2000/svg">
<path d="M444.792 152.468H118.532C102.588 152.468 89.6621 165.394 89.6621 181.338V379.598C89.6621 395.543 102.588 408.468 118.532 408.468H444.792C460.737 408.468 473.662 395.543 473.662 379.598V181.338C473.662 165.394 460.737 152.468 444.792 152.468Z" fill="#D9D9D9" stroke="#D9D9D9" stroke-width="32" stroke-linejoin="round"/>
<path d="M393.792 105.468H67.5321C51.5877 105.468 38.6621 118.394 38.6621 134.338V332.598C38.6621 348.543 51.5877 361.468 67.5321 361.468H393.792C409.737 361.468 422.662 348.543 422.662 332.598V134.338C422.662 118.394 409.737 105.468 393.792 105.468Z" fill="#8CB190" stroke="#8CB18F" stroke-width="32" stroke-linejoin="round"/>
<path opacity="0.1" d="M92.6621 140.968H285.162M92.6621 220.968H195.662" stroke="black" stroke-width="32" stroke-linecap="round" stroke-linejoin="round"/>
</svg>
