<svg width="512" height="512" viewBox="0 0 512 512" fill="none" xmlns="http://www.w3.org/2000/svg">
<path d="M419.13 60H92.87C76.9255 60 64 72.9255 64 88.87V287.13C64 303.074 76.9255 316 92.87 316H419.13C435.074 316 448 303.074 448 287.13V88.87C448 72.9255 435.074 60 419.13 60Z" fill="#8CB190" stroke="#8CB18F" stroke-width="32" stroke-linejoin="round"/>
<path d="M64 363C66.5828 363 124.41 363 153 363" stroke="#D9D9D9" stroke-width="32" stroke-linecap="round" stroke-linejoin="round"/>
<path d="M193 363C196.25 363 269.021 363 305 363" stroke="#D9D9D9" stroke-width="32" stroke-linecap="round" stroke-linejoin="round"/>
<path d="M345 363C346.509 363 380.295 363 397 363" stroke="#D9D9D9" stroke-width="32" stroke-linecap="round" stroke-linejoin="round"/>
<path d="M63.9932 403.993C68.1725 403.993 161.744 403.993 208.007 403.993" stroke="#D9D9D9" stroke-width="32" stroke-linecap="round" stroke-linejoin="round"/>
<path d="M90.5 88H153.5M193.5 88H248M384.5 88H427.5M174.5 141.5H272.5" stroke="#7E9F81" stroke-width="32" stroke-linecap="round" stroke-linejoin="round"/>
</svg>
