<svg xmlns="http://www.w3.org/2000/svg" viewBox="0 0 1000 1000" shape-rendering="geometricPrecision" text-rendering="geometricPrecision"><defs><linearGradient id="b" x1=".687" y1=".036" x2=".313" y2=".964" spreadMethod="pad" gradientUnits="objectBoundingBox"><stop offset="0%" stop-color="#0b0"/><stop offset="100%" stop-color="#009600"/></linearGradient><filter id="a" x="-150%" width="400%" y="-150%" height="400%"><feGaussianBlur in="SourceAlpha" stdDeviation="100,100"/><feOffset result="tmp"/><feFlood flood-color="#0b0"/><feComposite operator="in" in2="tmp"/><feMerge><feMergeNode/><feMergeNode in="SourceGraphic"/></feMerge></filter></defs><path d="M4775 9504c-230-55-437-199-575-399-48-70-108-202-131-290-26-100-36-291-20-395 17-108 71-257 127-352 96-162 292-328 463-392 124-47 182-57 428-71 134-8 291-22 350-31 320-47 680-184 972-369 810-513 1269-1412 1211-2373-22-362-109-681-275-1012-200-396-537-768-920-1015-414-267-895-406-1405-407-374 0-678 60-1007 198-528 221-971 614-1261 1121-203 356-310 736-332 1183-12 238-16 273-46 378-47 160-130 297-255 418-90 86-146 125-252 174-144 68-228 84-417 84-138 0-178-4-245-22-89-25-222-85-291-133-200-137-346-349-398-576-22-97-22-495-1-699 76-717 338-1449 730-2037 171-258 335-457 570-692 513-515 1121-886 1829-1115 262-84 585-151 906-187 216-24 724-24 938 0 705 79 1406 322 1967 680 986 631 1687 1609 1965 2741 91 372 124 659 124 1086 0 338-12 486-59 768-96 567-337 1196-638 1667-748 1169-1974 1926-3349 2070-194 20-618 19-703-1Z" filter="url(#a)" fill="url(#b)" transform="matrix(.1 0 0 -.1 0 1000)"/></svg>